<svg width="1920" height="1080" viewBox="0 0 1920 1080" xmlns="http://www.w3.org/2000/svg"><rect width="1920" height="1080" fill="#ffffff"/><path d="M 0,1080 C 0,1080 0,180 0,180 C 99.55641025641029,200.0897435897436 199.11282051282058,220.17948717948715 318,221 C 436.8871794871794,221.82051282051285 575.1051282051282,203.3717948717949 687,184 C 798.8948717948718,164.6282051282051 884.4666666666667,144.33333333333334 966,153 C 1047.5333333333333,161.66666666666666 1125.0282051282052,199.29487179487177 1229,194 C 1332.9717948717948,188.70512820512823 1463.4205128205128,140.4871794871795 1583,131 C 1702.5794871794872,121.5128205128205 1811.2897435897435,150.75641025641025 1920,180 C 1920,180 1920,1080 1920,1080 Z" fill="#f740d2" opacity="0.09999999999999999"/><path d="M 0,1080 C 0,1080 0,360 0,360 C 104.42820512820512,393.7205128205128 208.85641025641024,427.44102564102565 318,403 C 427.14358974358976,378.55897435897435 541.0025641025642,295.9564102564102 642,302 C 742.9974358974358,308.0435897435898 831.1333333333332,402.73333333333335 948,413 C 1064.8666666666668,423.26666666666665 1210.4641025641026,349.1102564102564 1316,322 C 1421.5358974358974,294.8897435897436 1487.0102564102565,314.82564102564106 1581,329 C 1674.9897435897435,343.17435897435894 1797.4948717948719,351.58717948717947 1920,360 C 1920,360 1920,1080 1920,1080 Z" fill="#f740d2" opacity="0.19999999999999998"/><path d="M 0,1080 C 0,1080 0,540 0,540 C 96.22564102564101,562.0025641025641 192.45128205128202,584.0051282051282 306,572 C 419.548717948718,559.9948717948718 550.4205128205128,513.9820512820513 658,497 C 765.5794871794872,480.01794871794874 849.8666666666668,492.0666666666666 948,521 C 1046.1333333333332,549.9333333333334 1158.1128205128205,595.751282051282 1274,604 C 1389.8871794871795,612.248717948718 1509.6820512820514,582.9282051282051 1618,566 C 1726.3179487179486,549.0717948717949 1823.1589743589743,544.5358974358974 1920,540 C 1920,540 1920,1080 1920,1080 Z" fill="#f740d2" opacity="0.3"/><path d="M 0,1080 C 0,1080 0,720 0,720 C 90.32564102564103,738.2666666666667 180.65128205128207,756.5333333333334 283,756 C 385.34871794871793,755.4666666666666 499.7205128205128,736.1333333333333 612,717 C 724.2794871794872,697.8666666666667 834.4666666666667,678.9333333333334 949,668 C 1063.5333333333333,657.0666666666666 1182.4128205128204,654.1333333333333 1294,653 C 1405.5871794871796,651.8666666666667 1509.8820512820514,652.5333333333333 1613,664 C 1716.1179487179486,675.4666666666667 1818.0589743589744,697.7333333333333 1920,720 C 1920,720 1920,1080 1920,1080 Z" fill="#f740d2" opacity="0.39999999999999997"/><path d="M 0,1080 C 0,1080 0,900 0,900 C 105.23076923076925,867.523076923077 210.4615384615385,835.046153846154 308,849 C 405.5384615384615,862.953846153846 495.38461538461536,923.3384615384614 599,925 C 702.6153846153846,926.6615384615386 820,869.6000000000003 925,869 C 1030,868.3999999999997 1122.615384615385,924.2615384615384 1235,932 C 1347.384615384615,939.7384615384616 1479.5384615384614,899.3538461538461 1597,886 C 1714.4615384615386,872.6461538461539 1817.2307692307693,886.323076923077 1920,900 C 1920,900 1920,1080 1920,1080 Z" fill="#f740d2" opacity="0.49999999999999994"/></svg>