<svg width="1920" height="1080" viewBox="0 0 1920 1080" xmlns="http://www.w3.org/2000/svg"><rect width="1920" height="1080" fill="#ffffff"/><path d="M 0,1080 C 0,1080 0,180 0,180 C 56.12095217954479,168.11347114647492 112.24190435908957,156.22694229294984 188,158 C 263.7580956409104,159.77305770705016 359.15333474318646,175.20570197467552 433,195 C 506.84666525681354,214.79429802532448 559.1447566681646,238.95024980834808 624,233 C 688.8552433318354,227.04975019165192 766.267638584155,190.99329879193212 839,170 C 911.732361415845,149.00670120806788 979.7846889952152,143.07655502392345 1048,154 C 1116.2153110047848,164.92344497607655 1184.5936054349836,192.7004811123741 1262,211 C 1339.4063945650164,229.2995188876259 1425.84088926485,238.12152052658016 1509,214 C 1592.15911073515,189.87847947341984 1672.0428375056172,132.81343678130537 1745,119 C 1817.9571624943828,105.18656321869463 1883.9877607126807,134.62473234819848 1912,152 C 1940.0122392873193,169.37526765180152 1930.0061196436595,174.68763382590078 1920,180 C 1920,180 1920,1080 1920,1080 Z" fill="#cf67bd" opacity="0.09999999999999999"/><path d="M 0,1080 C 0,1080 0,360 0,360 C 82.09484786803776,371.30370879483996 164.18969573607552,382.60741758967987 233,388 C 301.8103042639245,393.39258241032013 357.33606492373576,392.87403843612043 425,387 C 492.66393507626424,381.12596156387957 572.4660445689816,369.8964286658384 655,369 C 737.5339554310184,368.1035713341616 822.7997568003384,377.540246900526 881,398 C 939.2002431996616,418.459753099474 970.3349282296651,449.94258373205747 1041,427 C 1111.6650717703349,404.05741626794253 1221.860530281001,326.68941817124426 1309,327 C 1396.139469718999,327.31058182875574 1460.2229506463298,405.2997435829655 1520,420 C 1579.7770493536702,434.7002564170345 1635.2476671336804,386.1116074968939 1702,372 C 1768.7523328663196,357.8883925031061 1846.7863808189486,378.2538264294589 1885,382 C 1923.2136191810514,385.7461735705411 1921.6068095905257,372.8730867852705 1920,360 C 1920,360 1920,1080 1920,1080 Z" fill="#cf67bd" opacity="0.19999999999999998"/><path d="M 0,1080 C 0,1080 0,540 0,540 C 60.23332628406777,538.4105448201116 120.46665256813554,536.8210896402231 200,535 C 279.53334743186446,533.1789103597769 378.36671601152557,531.126186259219 449,531 C 519.6332839884744,530.873813740781 562.0664833857622,532.6741653229004 634,550 C 705.9335166142378,567.3258346770996 807.3673504454254,600.1771524491792 881,603 C 954.6326495545746,605.8228475508208 1000.4641148325359,578.6172248803828 1071,572 C 1141.5358851674641,565.3827751196172 1236.7761902244308,579.3539480292898 1298,587 C 1359.2238097755692,594.6460519707102 1386.4311242697404,595.9669830024584 1456,568 C 1525.5688757302596,540.0330169975416 1637.4993126966083,482.77811996087667 1734,486 C 1830.5006873033917,489.22188003912333 1911.5716249438262,552.9205371540353 1940,572 C 1968.4283750561738,591.0794628459647 1944.2141875280868,565.5397314229824 1920,540 C 1920,540 1920,1080 1920,1080 Z" fill="#cf67bd" opacity="0.3"/><path d="M 0,1080 C 0,1080 0,720 0,720 C 87.62337095878823,722.282719606651 175.24674191757646,724.5654392133019 248,709 C 320.75325808242354,693.4345607866981 378.6364032884824,660.0209627534431 439,678 C 499.3635967115176,695.9790372465569 562.207644928494,765.3507097729255 632,762 C 701.792355071506,758.6492902270745 778.5330169975417,682.5761981548549 849,665 C 919.4669830024583,647.4238018451451 983.6602870813394,688.3444976076555 1048,698 C 1112.3397129186606,707.6555023923445 1176.8258346770997,686.0458114145232 1244,680 C 1311.1741653229003,673.9541885854768 1381.0363742102622,683.4722567342516 1465,708 C 1548.9636257897378,732.5277432657484 1647.0286684818523,772.0651616484707 1738,783 C 1828.9713315181477,793.9348383515293 1912.8489518623278,776.2670966718655 1942,761 C 1971.1510481376722,745.7329033281345 1945.575524068836,732.8664516640672 1920,720 C 1920,720 1920,1080 1920,1080 Z" fill="#cf67bd" opacity="0.39999999999999997"/><path d="M 0,1080 C 0,1080 0,900 0,900 C 79.57878875994606,938.1293319939729 159.15757751989213,976.2586639879457 222,957 C 284.84242248010787,937.7413360120543 330.9484786803776,861.0946760421897 394,862 C 457.0515213196224,862.9053239578103 537.0485077585978,941.3626318432948 627,950 C 716.9514922414022,958.6373681567052 816.8574902852309,897.4547965846308 882,886 C 947.1425097147691,874.5452034153692 977.5215311004786,912.818181818182 1032,917 C 1086.4784688995214,921.181818181818 1165.056385312855,891.2724761426417 1251,887 C 1336.943614687145,882.7275238573583 1430.2529276481007,904.0919136112506 1504,918 C 1577.7470723518993,931.9080863887494 1631.931904094742,938.3598694123555 1716,916 C 1800.068095905258,893.6401305876445 1914.019455972931,842.468608739327 1953,835 C 1991.980544027069,827.531391260673 1955.9902720135346,863.7656956303365 1920,900 C 1920,900 1920,1080 1920,1080 Z" fill="#cf67bd" opacity="0.49999999999999994"/></svg>