<svg width="1920" height="1080" viewBox="0 0 1920 1080" xmlns="http://www.w3.org/2000/svg"><rect width="1920" height="1080" fill="#f0d1f1"/><path d="M 0,1080 C 0,1080 0,180 0,180 C 56.33923709323534,149.15377091649265 112.67847418647068,118.30754183298528 193,113 C 273.3215258135293,107.69245816701472 377.6253403473527,127.92360358455153 448,140 C 518.3746596526473,152.07639641544847 554.8201644241191,155.9980438288086 608,153 C 661.1798355758809,150.0019561711914 731.0940019561712,140.08422110021414 815,158 C 898.9059980438288,175.91577889978586 996.8038277511962,221.66507177033492 1083,226 C 1169.1961722488038,230.33492822966508 1243.6906870390442,193.2554918184462 1315,186 C 1386.3093129609558,178.7445081815538 1454.4334240926273,201.31296095588038 1514,204 C 1573.5665759073727,206.68703904411962 1624.5756165904463,189.49266435803221 1703,175 C 1781.4243834095537,160.50733564196779 1887.2641095455867,148.71638161199078 1928,150 C 1968.7358904544133,151.28361838800922 1944.3679452272067,165.64180919400462 1920,180 C 1920,180 1920,1080 1920,1080 Z" fill="#cf67bd" opacity="0.09999999999999999"/><path d="M 0,1080 C 0,1080 0,360 0,360 C 55.23903618916705,398.1520526580137 110.4780723783341,436.3041053160274 187,414 C 263.5219276216659,391.6958946839726 361.3267466758307,308.9356313939041 439,303 C 516.6732533241693,297.0643686060959 574.214940918343,367.953369108356 643,378 C 711.785059081657,388.046630891644 791.8134896507971,337.2508921726718 873,344 C 954.1865103492029,350.7491078273282 1036.5311004784692,415.0430622009569 1100,405 C 1163.4688995215308,394.9569377990431 1208.0621084353272,310.5768590235005 1274,313 C 1339.9378915646728,315.4231409764995 1427.2204657802217,404.64950170504113 1492,408 C 1556.7795342197783,411.35049829495887 1599.0560284437863,328.8251341563351 1675,326 C 1750.9439715562137,323.1748658436649 1860.5554204446325,400.0499616696186 1907,419 C 1953.4445795553675,437.9500383303814 1936.7222897776837,398.9750191651907 1920,360 C 1920,360 1920,1080 1920,1080 Z" fill="#cf67bd" opacity="0.19999999999999998"/><path d="M 0,1080 C 0,1080 0,540 0,540 C 52.0139707631711,549.7212059531048 104.0279415263422,559.4424119062095 180,560 C 255.9720584736578,560.5575880937905 355.90220465780226,551.9515583282666 433,557 C 510.09779534219774,562.0484416717334 564.3632398424489,580.7513547807239 632,597 C 699.6367601575511,613.2486452192761 780.6448359724022,627.0430225488382 848,601 C 915.3551640275978,574.9569774511618 969.0574162679427,509.07655502392345 1046,486 C 1122.9425837320573,462.92344497607655 1223.1254989558274,482.65075735546804 1293,491 C 1362.8745010441726,499.34924264453196 1402.4405879087471,496.3204155542045 1459,498 C 1515.5594120912529,499.6795844457955 1589.1121494091838,506.06758042771423 1680,512 C 1770.8878505908162,517.9324195722858 1879.110814454519,523.4092627349388 1922,528 C 1964.889185545481,532.5907372650612 1942.4445927727406,536.2953686325307 1920,540 C 1920,540 1920,1080 1920,1080 Z" fill="#cf67bd" opacity="0.3"/><path d="M 0,1080 C 0,1080 0,720 0,720 C 55.911258558248974,740.6101668032461 111.82251711649795,761.2203336064923 177,740 C 242.17748288350205,718.7796663935077 316.62119009225717,655.7288323772767 405,655 C 493.37880990774283,654.2711676227233 595.6927225144731,715.8643368844009 662,738 C 728.3072774855269,760.1356631155991 758.6079198498508,742.8138200851199 836,728 C 913.3920801501492,713.1861799148801 1037.8755980861242,700.8803827751196 1105,712 C 1172.1244019138758,723.1196172248804 1181.8896878056519,757.6646488144017 1246,742 C 1310.1103121943481,726.3353511855983 1428.5656506912685,660.4610219672737 1519,662 C 1609.4343493087315,663.5389780327263 1671.8477094292737,732.4912633165033 1734,747 C 1796.1522905707263,761.5087366834967 1858.0435115916362,721.5739247667133 1889,708 C 1919.9564884083638,694.4260752332867 1919.978244204182,707.2130376166433 1920,720 C 1920,720 1920,1080 1920,1080 Z" fill="#cf67bd" opacity="0.39999999999999997"/><path d="M 0,1080 C 0,1080 0,900 0,900 C 53.75916624811653,878.3252002431997 107.51833249623306,856.6504004863993 180,868 C 252.48166750376694,879.3495995136007 343.68583626318434,923.7235982976023 425,936 C 506.31416373681566,948.2764017023977 577.7383224510296,928.4552063231911 653,904 C 728.2616775489704,879.5447936768089 807.3608739326972,850.455576409633 879,847 C 950.6391260673028,843.544423590367 1014.8181818181818,865.7224880382773 1073,890 C 1131.1818181818182,914.2775119617227 1183.3663987945756,940.654471437257 1263,952 C 1342.6336012054244,963.345528562743 1449.7162230035158,959.6596262126941 1522,959 C 1594.2837769964842,958.3403737873059 1631.768709191361,960.7070237119669 1703,932 C 1774.231290808639,903.2929762880331 1879.2089402310396,843.512278939438 1921,833 C 1962.7910597689604,822.487721060562 1941.3955298844803,861.2438605302809 1920,900 C 1920,900 1920,1080 1920,1080 Z" fill="#cf67bd" opacity="0.49999999999999994"/></svg>